<?xml version="1.0" encoding="utf-8"?>
<!-- Generator: Adobe Illustrator 16.0.0, SVG Export Plug-In . SVG Version: 6.00 Build 0)  -->
<!DOCTYPE svg PUBLIC "-//W3C//DTD SVG 1.1//EN" "http://www.w3.org/Graphics/SVG/1.1/DTD/svg11.dtd">
<svg version="1.1" id="Layer_1" xmlns="http://www.w3.org/2000/svg" xmlns:xlink="http://www.w3.org/1999/xlink" x="0px" y="0px"
	 width="500px" height="432px" viewBox="0 0 500 432" enable-background="new 0 0 500 432" xml:space="preserve">
<g>
	<g>
		<g>
			<path fill="#76C4C5" d="M242.437,14.493c5.576-5.889,14.79-5.623,20.579,0.596l53.394,57.354
				c5.789,6.219,5.961,16.034,0.385,21.924l-55.538,58.652c-5.576,5.89-14.79,5.623-20.579-0.596l-53.394-57.354
				c-5.789-6.219-5.961-16.034-0.385-21.923L242.437,14.493L242.437,14.493z"/>
			<path fill="#76C4C5" d="M251.847,83.756"/>
		</g>
		<g>
			<path fill="#5E9CC5" d="M325.691,100.766c5.575-5.89,14.789-5.622,20.579,0.596l53.394,57.354
				c5.788,6.219,5.962,16.035,0.385,21.924l-55.538,58.652c-5.576,5.891-14.789,5.623-20.579-0.596l-53.395-57.354
				c-5.788-6.219-5.961-16.035-0.384-21.924L325.691,100.766L325.691,100.766z"/>
			<path fill="#5E9CC5" d="M335.101,170.029"/>
		</g>
		<g>
			<path fill="#495673" d="M405.962,186.39c5.577-5.89,14.792-5.623,20.579,0.595l53.395,57.353
				c5.79,6.219,5.961,16.035,0.385,21.925l-55.536,58.652c-5.579,5.89-14.792,5.623-20.581-0.595l-53.393-57.354
				c-5.79-6.219-5.962-16.034-0.385-21.924L405.962,186.39L405.962,186.39z"/>
			<path fill="#495673" d="M415.372,255.653"/>
		</g>
		<g>
			<path fill="#495673" d="M242.743,187.281c5.577-5.89,14.791-5.622,20.58,0.596l53.394,57.354
				c5.788,6.219,5.961,16.033,0.384,21.923l-55.537,58.652c-5.576,5.89-14.79,5.623-20.579-0.596l-53.394-57.353
				c-5.79-6.219-5.961-16.035-0.385-21.925L242.743,187.281L242.743,187.281z"/>
			<path fill="#495673" d="M252.153,256.544"/>
		</g>
		<g>
			<path fill="#5E9CC5" d="M161.58,101.212c5.576-5.889,14.79-5.623,20.579,0.596l53.394,57.354
				c5.789,6.219,5.961,16.034,0.385,21.924L180.4,239.738c-5.577,5.89-14.791,5.623-20.58-0.596l-53.394-57.354
				c-5.789-6.219-5.961-16.034-0.385-21.923L161.58,101.212L161.58,101.212z"/>
			<path fill="#5E9CC5" d="M170.99,170.475"/>
		</g>
		<g>
			<path fill="#495673" d="M77.74,186.39c5.576-5.89,14.79-5.623,20.58,0.595l53.394,57.353c5.788,6.219,5.961,16.035,0.384,21.925
				l-55.537,58.652c-5.576,5.89-14.79,5.623-20.58-0.595l-53.394-57.354c-5.788-6.219-5.961-16.034-0.384-21.924L77.74,186.39
				L77.74,186.39z"/>
			<path fill="#495673" d="M87.15,255.653"/>
		</g>
	</g>
	<g>
		<g>
			<path fill="#495673" d="M48.236,384.662l-5.496,5.436c-3.478-3.68-7.532-5.519-12.163-5.519c-4.035,0-7.416,1.338-10.14,4.014
				c-2.726,2.676-4.087,5.928-4.087,9.755c0,3.958,1.413,7.312,4.24,10.062c2.827,2.751,6.315,4.126,10.464,4.126
				c2.696,0,4.971-0.567,6.821-1.7c1.852-1.134,3.344-2.909,4.479-5.324H30.481v-7.33h20.625l0.056,1.729
				c0,3.586-0.929,6.986-2.787,10.2c-1.858,3.215-4.264,5.668-7.219,7.358c-2.954,1.69-6.42,2.537-10.396,2.537
				c-4.255,0-8.051-0.925-11.386-2.773s-5.974-4.483-7.915-7.902c-1.942-3.418-2.913-7.106-2.913-11.065
				c0-5.425,1.793-10.146,5.379-14.159c4.256-4.774,9.793-7.162,16.612-7.162c3.567,0,6.902,0.659,10.006,1.979
				C43.163,380.035,45.728,381.949,48.236,384.662z"/>
			<path fill="#495673" d="M85.799,402.863l4.649,5.323l-2.113,1.922L86.249,412l6.582,6.972h-9.46l-2.704-2.786
				c-4.312,2.546-8.316,3.818-12.015,3.818c-3.141,0-5.682-0.921-7.623-2.76c-1.942-1.839-2.913-4.198-2.913-7.08
				c0-2.174,0.55-4.226,1.65-6.159c1.101-1.933,2.985-3.93,5.652-5.993c-2.639-3.548-3.958-6.689-3.958-9.42
				c0-2.025,0.873-4.022,2.62-5.993c1.746-1.969,4.209-2.955,7.386-2.955c3.215,0,5.682,0.976,7.4,2.928
				c1.719,1.951,2.578,3.92,2.578,5.908c0,1.562-0.395,3.058-1.185,4.488s-2.606,3.549-5.449,6.354
				c3.327,3.921,5.475,6.364,6.441,7.33C81.848,406.208,83.363,404.944,85.799,402.863z M75.609,410.762
				c-1.436-1.408-3.457-3.745-6.065-7.009c-2.75,2.287-4.125,4.284-4.125,5.993c0,0.8,0.376,1.533,1.128,2.203
				c0.751,0.668,1.703,1.002,2.854,1.002C71.052,412.952,73.122,412.222,75.609,410.762z M70.966,393.832
				c2.062-1.766,3.093-3.326,3.093-4.682c0-0.707-0.231-1.283-0.696-1.729c-0.465-0.446-1.078-0.669-1.84-0.669
				c-0.706,0-1.306,0.251-1.797,0.752c-0.493,0.503-0.739,1.088-0.739,1.756C68.986,390.598,69.646,392.123,70.966,393.832z"/>
			<path fill="#495673" d="M138.374,385.178l-5.458,5.203c-3.713-3.924-7.891-5.887-12.531-5.887c-3.918,0-7.218,1.339-9.9,4.018
				c-2.683,2.678-4.024,5.979-4.024,9.904c0,2.734,0.595,5.162,1.782,7.282c1.188,2.121,2.868,3.785,5.04,4.994
				c2.173,1.209,4.587,1.813,7.241,1.813c2.265,0,4.335-0.423,6.21-1.271c1.874-0.845,3.936-2.385,6.183-4.616l5.291,5.521
				c-3.029,2.957-5.891,5.006-8.585,6.148c-2.694,1.144-5.77,1.716-9.226,1.716c-6.374,0-11.591-2.021-15.65-6.063
				c-4.061-4.041-6.09-9.221-6.09-15.538c0-4.088,0.924-7.72,2.773-10.898c1.849-3.177,4.496-5.731,7.943-7.665
				c3.446-1.932,7.158-2.897,11.135-2.897c3.382,0,6.638,0.714,9.77,2.143C133.407,380.513,136.106,382.544,138.374,385.178z"/>
			<path fill="#495673" d="M202.396,385.178l-5.458,5.203c-3.713-3.924-7.891-5.887-12.531-5.887c-3.918,0-7.218,1.339-9.9,4.018
				c-2.683,2.678-4.024,5.979-4.024,9.904c0,2.734,0.595,5.162,1.782,7.282c1.188,2.121,2.868,3.785,5.041,4.994
				c2.172,1.209,4.586,1.813,7.24,1.813c2.266,0,4.335-0.423,6.21-1.271c1.875-0.845,3.936-2.385,6.183-4.616l5.291,5.521
				c-3.029,2.957-5.891,5.006-8.585,6.148c-2.694,1.144-5.77,1.716-9.226,1.716c-6.373,0-11.59-2.021-15.65-6.063
				c-4.061-4.041-6.09-9.221-6.09-15.538c0-4.088,0.924-7.72,2.773-10.898c1.849-3.177,4.496-5.731,7.943-7.665
				c3.446-1.932,7.158-2.897,11.135-2.897c3.382,0,6.638,0.714,9.77,2.143C197.43,380.513,200.129,382.544,202.396,385.178z"/>
			<path fill="#495673" d="M210.966,377.972h7.916v15.469h13.685v-15.469h7.889v41h-7.889v-17.977h-13.685v17.977h-7.916V377.972z"
				/>
			<path fill="#495673" d="M251.032,377.972h7.748v41h-7.748V377.972z"/>
			<path fill="#495673" d="M269.329,377.972h7.804v33.559h11.373v7.441h-19.177V377.972z"/>
			<path fill="#495673" d="M296.239,377.972h22.382v7.637h-14.633v7.415h14.633v7.497h-14.633v10.787h14.633v7.664h-22.382V377.972z
				"/>
			<path fill="#495673" d="M345.405,377.972h7.805v33.559h11.372v7.441h-19.177V377.972z"/>
			<path fill="#495673" d="M368.246,377.972h22.66v7.693h-7.47v33.307h-7.916v-33.307h-7.274V377.972z"/>
			<path fill="#495673" d="M398.055,377.972h9.247c5.958,0,10.386,0.738,13.282,2.217c2.896,1.477,5.281,3.878,7.157,7.204
				c1.875,3.326,2.812,7.21,2.812,11.65c0,3.159-0.524,6.062-1.572,8.711c-1.05,2.647-2.497,4.846-4.346,6.591
				c-1.847,1.748-3.848,2.955-6,3.624c-2.154,0.669-5.886,1.003-11.195,1.003h-9.386V377.972z M405.804,385.499v25.865h3.624
				c3.566,0,6.154-0.409,7.762-1.229c1.606-0.818,2.922-2.194,3.944-4.129c1.021-1.935,1.533-4.314,1.533-7.144
				c0-4.352-1.218-7.729-3.651-10.128c-2.193-2.157-5.714-3.236-10.563-3.236H405.804z"/>
			<path fill="#495673" d="M452.274,377.972h7.915l15.769,41h-8.111l-3.208-8.445h-16.729l-3.336,8.445h-8.111L452.274,377.972z
				 M456.28,388.842l-5.501,14.076h10.969L456.28,388.842z"/>
			<path fill="#495673" d="M487.079,411.029c1.207,0,2.238,0.423,3.093,1.269s1.282,1.872,1.282,3.08s-0.428,2.239-1.282,3.094
				s-1.886,1.282-3.093,1.282c-1.209,0-2.24-0.428-3.095-1.282c-0.855-0.854-1.281-1.886-1.281-3.094s0.426-2.234,1.281-3.08
				C484.839,411.452,485.87,411.029,487.079,411.029z"/>
		</g>
	</g>
</g>
</svg>
